<?xml version="1.0" encoding="utf-8"?>
<!-- Generator: Adobe Illustrator 19.0.0, SVG Export Plug-In . SVG Version: 6.00 Build 0)  -->
<svg version="1.1" xmlns="http://www.w3.org/2000/svg" xmlns:xlink="http://www.w3.org/1999/xlink" x="0px" y="0px"
	 viewBox="0 0 1700.8 1133.9" style="enable-background:new 0 0 1700.8 1133.9;" xml:space="preserve">
<style type="text/css">
	.st0{display:none;}
	.st1{display:inline;fill:#960000;}
	.st2{fill:#FFFFFF;stroke:#000000;stroke-width:3;stroke-miterlimit:10;}
	.st3{display:none;opacity:0.3;fill:#FFFFFF;}
	.st4{display:none;opacity:0.69;fill:#FFFFFF;}
	.st5{fill:#B5B5B5;}
</style>
<g id="Background" class="st0">
	<rect x="-0.8" y="-1.5" class="st1" width="1700.8" height="1133.9"/>
</g>
<g id="Spotlight">
	<g id="Lamp">
		<polygon points="1337,171.5 1303.4,191.4 1292,211.3 1325.6,191.4 		"/>
		<polygon points="1395.2,198.7 1408.9,234 1404.2,260.4 1390.4,225.1 		"/>
		<polygon points="1293.1,222.4 1322.5,199.3 1390.7,234.2 1388.6,272.7 		"/>
		
			<ellipse transform="matrix(0.8876 0.4606 -0.4606 0.8876 246.175 -603.8851)" class="st2" cx="1360.5" cy="202.5" rx="36.5" ry="17.3"/>
		<polygon points="1414.3,221.5 1317.4,169.6 1351.2,167.8 1397,191.9 		"/>
		<rect x="1359.3" y="130.8" transform="matrix(0.8879 0.46 -0.46 0.8879 227.4454 -619.6279)" width="52.2" height="52.3"/>
		<ellipse transform="matrix(0.8887 0.4585 -0.4585 0.8887 216.9023 -625.7424)" cx="1397.3" cy="133.9" rx="26.1" ry="5.3"/>
	</g>
	<path class="st3" d="M1330.5,185l-274.2,683.5c9-11.1,47.5-19.4,93.7-19.4c52.8,0,95.7,10.9,95.7,24.3l146-655.5L1330.5,185z"/>
	<ellipse id="Beamcircle_1_" class="st4" cx="1152" cy="873.5" rx="95.7" ry="24.3"/>
</g>
<g id="Text">
	<g>
		<path class="st5" d="M300.8,874.2c-0.7,0.2-1.4,0.4-2.1,0.4c-0.7,0-1.1-0.1-1.4-0.4c-1.1-0.4-1.8-1.1-2.2-2.2
			c-0.1,0-0.2-0.1-0.2-0.4l-0.2-0.2l-49.6-118c-0.5-1.1-0.5-2.2,0-3.4c0.5-1.2,1.3-2,2.4-2.5c1.1-0.5,2.2-0.5,3.4-0.1
			c1.2,0.4,2,1.2,2.5,2.3l45.8,109.1l45.9-109.1c0.4-1.1,1.1-1.9,2.3-2.3c1.2-0.4,2.3-0.4,3.4,0.1c1.1,0.5,1.9,1.3,2.4,2.5
			c0.5,1.2,0.5,2.3,0,3.4l-49.6,117.1c-0.2,1.8-1.1,3.1-2.6,3.7H300.8z"/>
		<path class="st5" d="M391.6,870.1V750.8c0-1.2,0.4-2.3,1.3-3.1c0.9-0.9,1.9-1.3,3.1-1.3c1.2,0,2.3,0.4,3.2,1.3
			c0.9,0.9,1.4,1.9,1.4,3.1v119.3c0,1.2-0.5,2.3-1.4,3.1c-0.9,0.9-2,1.3-3.2,1.3c-1.2,0-2.3-0.4-3.1-1.3
			C392,872.4,391.6,871.4,391.6,870.1z"/>
		<path class="st5" d="M521.5,872.5c-7.8,0-11.7-9-11.7-26.9c0-7.8-3.5-14.3-10.4-19.4c-5-3.5-10.1-5.7-15.4-6.6
			c-0.1-0.1-0.2-0.2-0.4-0.2h-31.1v50.7c0,1.2-0.5,2.3-1.4,3.1s-2,1.3-3.2,1.3c-1.2,0-2.3-0.4-3.1-1.3c-0.9-0.9-1.3-1.9-1.3-3.1
			V750.8c0-1.1,0.4-2.1,1.2-2.9c0.8-0.9,1.7-1.3,2.8-1.5h36.6c10.1,0,18.7,3.6,25.8,10.7c7.1,7.1,10.6,15.8,10.6,25.9
			c0,7.2-1.9,13.8-5.8,19.8c-3.8,6-8.9,10.4-15.3,13.4l1.8,0.9c4.9,2.8,9,6.6,12.3,11.3s4.9,11.2,4.9,19.4c0,8.2,1.2,13.4,3.5,15.7
			c2.6-0.2,4.2,0.7,4.9,2.9c0.6,2.9-0.4,4.9-2.9,5.9h-0.4l-1.8,0.2H521.5z M503.9,802.2c5.2-5.4,7.9-11.8,7.9-19.4
			c0-7.6-2.7-14-8.1-19.4c-5.4-5.4-11.9-8.1-19.5-8.1h-31.7v55.3h32.4C492.3,810.4,498.7,807.6,503.9,802.2z"/>
		<path class="st5" d="M593.6,870.1V755.4H555c-1.2,0-2.3-0.5-3.1-1.4c-0.9-0.9-1.3-2-1.3-3.2c0-1.2,0.4-2.3,1.3-3.1
			c0.9-0.9,1.9-1.3,3.1-1.3h86c1.2,0,2.3,0.4,3.1,1.3c0.9,0.9,1.3,1.9,1.3,3.1c0,1.2-0.4,2.3-1.3,3.2c-0.9,0.9-1.9,1.4-3.1,1.4
			h-38.6v114.7c0,1.2-0.4,2.3-1.3,3.1c-0.9,0.9-1.9,1.3-3.1,1.3c-1.2,0-2.3-0.4-3.1-1.3C594,872.4,593.6,871.4,593.6,870.1z"/>
		<path class="st5" d="M679.2,822.7v-71.9c0-1.2,0.4-2.3,1.3-3.1c0.9-0.9,1.9-1.3,3.1-1.3c1.2,0,2.3,0.4,3.2,1.3
			c0.9,0.9,1.4,1.9,1.4,3.1v71.9c0,11.8,4.2,21.9,12.5,30.2c8.4,8.3,18.4,12.5,30.1,12.6c12-0.1,22.1-4.3,30.5-12.6
			c8.4-8.3,12.5-18.4,12.5-30.2v-71.9c0-1.2,0.4-2.3,1.3-3.1c0.9-0.9,1.9-1.3,3.1-1.3c1.2,0,2.3,0.4,3.2,1.3
			c0.9,0.9,1.4,1.9,1.4,3.1v71.9c0,14.3-5.1,26.5-15.2,36.6c-10.1,10.1-22.3,15.2-36.6,15.2c-14.3,0-26.5-5.1-36.6-15.2
			C684.3,849.2,679.2,837,679.2,822.7z"/>
		<path class="st5" d="M822.3,809.6c0.1-18.1,6.2-33.4,18.1-46c12-12.6,26.5-18.9,43.6-18.9c17.1,0,31.6,6.3,43.5,18.9
			c11.8,12.6,17.8,28,17.9,46c-0.1,18.1-6.1,33.4-17.9,46c-11.8,12.6-26.3,18.9-43.5,18.9c-17.1,0-31.7-6.3-43.6-18.9
			C828.5,843,822.5,827.6,822.3,809.6z M883.9,753.7c-14.5,0-26.8,5.4-37.1,16.1c-10.3,10.7-15.5,23.9-15.5,39.6
			c0,15.7,5.2,28.9,15.5,39.8c10.3,10.9,22.7,16.3,37.1,16.3c14.4,0,26.7-5.5,37-16.4c10.2-10.9,15.4-24.1,15.6-39.6
			c-0.1-15.7-5.3-29-15.5-39.7C910.7,759.1,898.4,753.7,883.9,753.7z"/>
		<path class="st5" d="M988.9,777.9c0.2,12.2,12.6,20.6,37,25.3h0.4c14,2.6,24.9,6.5,32.6,11.7c9.4,6.1,14.1,14.2,14.1,24.2
			c0,10.1-4.7,18.5-14.2,25.3c-9.5,6.8-20.5,10.2-33.2,10.2c-16.1-0.1-31.8-6.3-47.2-18.5c-2-1.7-2.1-3.6-0.5-5.7
			c0.7-0.9,1.6-1.3,2.7-1.5c1.1-0.1,2.1,0.2,2.9,0.9c13.8,11.1,27.8,16.6,42.1,16.5c11.2,0,20.6-2.8,28.2-8.4c7.3-5.2,11-11.6,11-19
			c0-13.7-13.4-23-40.1-28h-0.4c-28.9-5.4-43.4-16.4-43.4-33.1c0-9.5,4.4-17.4,13.1-23.8c8.7-6.3,19.1-9.5,31.2-9.5
			c5.2,0,10.5,0.9,15.8,2.7c5.3,1.8,9.4,3.5,12.4,5.1s6.7,4,11.3,7c2.2,1.5,2.6,3.4,1.1,5.7c-1.3,2.2-3.2,2.6-5.5,1.1
			c-4.4-2.8-8-5-10.7-6.6c-2.7-1.6-6.4-3.1-11-4.7c-4.6-1.5-9.1-2.3-13.5-2.3c-10.2,0-19,2.6-26.2,7.7
			C992.2,765.3,988.9,771.2,988.9,777.9z"/>
	</g>
	<g>
		<path class="st5" d="M1107.3,869.1V749.8c0-1.2,0.4-2.3,1.3-3.1c0.9-0.9,1.9-1.3,3.1-1.3c1.2,0,2.3,0.4,3.2,1.3
			c0.9,0.9,1.4,1.9,1.4,3.1v119.3c0,1.2-0.5,2.3-1.4,3.1c-0.9,0.9-2,1.3-3.2,1.3c-1.2,0-2.3-0.4-3.1-1.3
			C1107.7,871.4,1107.3,870.4,1107.3,869.1z"/>
		<path class="st5" d="M1195,869.1V754.4h-38.6c-1.2,0-2.3-0.5-3.1-1.4c-0.9-0.9-1.3-2-1.3-3.2c0-1.2,0.4-2.3,1.3-3.1
			c0.9-0.9,1.9-1.3,3.1-1.3h86c1.2,0,2.3,0.4,3.1,1.3c0.9,0.9,1.3,1.9,1.3,3.1c0,1.2-0.4,2.3-1.3,3.2c-0.9,0.9-1.9,1.4-3.1,1.4
			h-38.6v114.7c0,1.2-0.4,2.3-1.3,3.1c-0.9,0.9-1.9,1.3-3.1,1.3c-1.2,0-2.3-0.4-3.1-1.3C1195.4,871.4,1195,870.4,1195,869.1z"/>
	</g>
	<g>
		<path class="st5" d="M1321.2,869.1V812l-43-58.7c-1.6-2.6-1.3-4.6,0.9-6.2c1-0.9,2.1-1.2,3.4-1c1.3,0.2,2.2,0.8,2.8,1.7l40.1,55.1
			l40.3-55.1c0.6-1,1.6-1.6,2.8-1.7c1.3-0.2,2.4,0.2,3.4,1c1,0.6,1.6,1.6,1.7,2.8c0.2,1.3-0.1,2.4-0.8,3.4l-42.8,58.4v57.5
			c0,1.2-0.4,2.3-1.3,3.1c-0.9,0.9-1.9,1.3-3.1,1.3c-1.2,0-2.3-0.4-3.1-1.3C1321.6,871.4,1321.2,870.4,1321.2,869.1z"/>
	</g>
</g>
</svg>
